<?xml version="1.0" encoding="UTF-8" standalone="no"?><svg xmlns="http://www.w3.org/2000/svg" xmlns:xlink="http://www.w3.org/1999/xlink" height="605" version="1.1" width="1334.39111328125"><defs/><g><g transform="translate(-270,-150) scale(1,1)"><rect fill="#C0C0C0" height="250" opacity="0.2" stroke="none" width="200.12158203125" x="287" y="183"/></g><g transform="translate(-270,-150) scale(1,1)"><rect fill="#ffffff" height="250" stroke="none" width="200.12158203125" x="280" y="176"/></g><g transform="translate(-270,-150) scale(1,1)"><path d="M 280 176 L 480.12158203125 176 L 480.12158203125 426 L 280 426 L 280 176 Z Z" fill="none" stroke="#000000" stroke-miterlimit="10"/></g><g transform="translate(-270,-150) scale(1,1)"><path d="M 280 201 L 480.12158203125 201" fill="none" stroke="#000000" stroke-miterlimit="10"/></g><g transform="translate(-270,-150) scale(1,1)"><path d="M 280 284 L 480.12158203125 284" fill="none" stroke="#000000" stroke-miterlimit="10"/></g><g transform="translate(-270,-150) scale(1,1)"><g><path fill="none" stroke="none"/><text fill="#000000" font-family="Arial" font-size="13px" font-style="normal" font-weight="bold" stroke="none" text-decoration="none" x="359.4658203125" y="195.5">Person</text></g></g><g transform="translate(-270,-150) scale(1,1)"><g><path fill="none" stroke="none"/><text fill="#000000" font-family="Arial" font-size="13px" font-style="normal" font-weight="normal" stroke="none" text-decoration="none" x="285" y="218.5">-friends: Person[*]</text></g></g><g transform="translate(-270,-150) scale(1,1)"><g><path fill="none" stroke="none"/><text fill="#000000" font-family="Arial" font-size="13px" font-style="normal" font-weight="normal" stroke="none" text-decoration="none" x="285" y="233.5">-enemies: Person[*]</text></g></g><g transform="translate(-270,-150) scale(1,1)"><g><path fill="none" stroke="none"/><text fill="#000000" font-family="Arial" font-size="13px" font-style="normal" font-weight="normal" stroke="none" text-decoration="none" x="285" y="248.5">-name: String</text></g></g><g transform="translate(-270,-150) scale(1,1)"><g><path fill="none" stroke="none"/><text fill="#000000" font-family="Arial" font-size="13px" font-style="normal" font-weight="normal" stroke="none" text-decoration="none" x="285" y="263.5">-id: int</text></g></g><g transform="translate(-270,-150) scale(1,1)"><g><path fill="none" stroke="none"/><text fill="#000000" font-family="Arial" font-size="13px" font-style="normal" font-weight="normal" stroke="none" text-decoration="none" x="285" y="278.5">-idCounter: int</text><path d="M 285 278.5 L 366.64990234375 278.5" fill="none" stroke="#000000" stroke-miterlimit="10"/></g></g><g transform="translate(-270,-150) scale(1,1)"><g><path fill="none" stroke="none"/><text fill="#000000" font-family="Arial" font-size="13px" font-style="normal" font-weight="normal" stroke="none" text-decoration="none" x="285" y="301.5">+Person(name: String)</text></g></g><g transform="translate(-270,-150) scale(1,1)"><g><path fill="none" stroke="none"/><text fill="#000000" font-family="Arial" font-size="13px" font-style="normal" font-weight="normal" stroke="none" text-decoration="none" x="285" y="316.5">+getID(): int</text></g></g><g transform="translate(-270,-150) scale(1,1)"><g><path fill="none" stroke="none"/><text fill="#000000" font-family="Arial" font-size="13px" font-style="normal" font-weight="normal" stroke="none" text-decoration="none" x="285" y="331.5">+getName(): String</text></g></g><g transform="translate(-270,-150) scale(1,1)"><g><path fill="none" stroke="none"/><text fill="#000000" font-family="Arial" font-size="13px" font-style="normal" font-weight="normal" stroke="none" text-decoration="none" x="285" y="346.5">+getFriends(): Person[*]</text></g></g><g transform="translate(-270,-150) scale(1,1)"><g><path fill="none" stroke="none"/><text fill="#000000" font-family="Arial" font-size="13px" font-style="normal" font-weight="normal" stroke="none" text-decoration="none" x="285" y="361.5">+getEnemies(): Person[*]</text></g></g><g transform="translate(-270,-150) scale(1,1)"><g><path fill="none" stroke="none"/><text fill="#000000" font-family="Arial" font-size="13px" font-style="normal" font-weight="normal" stroke="none" text-decoration="none" x="285" y="376.5">+isFriend(person: Person): bool</text></g></g><g transform="translate(-270,-150) scale(1,1)"><g><path fill="none" stroke="none"/><text fill="#000000" font-family="Arial" font-size="13px" font-style="normal" font-weight="normal" stroke="none" text-decoration="none" x="285" y="391.5">+isEnemy(person: Person): bool</text></g></g><g transform="translate(-270,-150) scale(1,1)"><g><path fill="none" stroke="none"/><text fill="#000000" font-family="Arial" font-size="13px" font-style="normal" font-weight="normal" stroke="none" text-decoration="none" x="285" y="406.5">+addFriend(newFriend: Person)</text></g></g><g transform="translate(-270,-150) scale(1,1)"><g><path fill="none" stroke="none"/><text fill="#000000" font-family="Arial" font-size="13px" font-style="normal" font-weight="normal" stroke="none" text-decoration="none" x="285" y="421.5">+addEnemy(newEnemy: Person)</text></g></g><g transform="translate(-270,-150) scale(1,1)"><path d="M 368 426 L 368 456 L 544 456 L 544 301 L 480 301" fill="none" stroke="#000000" stroke-miterlimit="10"/></g><g transform="translate(-270,-150) scale(1,1)"><path d="M 490.16267485762415 296.790482243984 L 480 301 L 490.16267485762415 305.209517756016" fill="none" stroke="#000000" stroke-miterlimit="10"/></g><g transform="translate(-270,-150) scale(1,1)"><g><path fill="none" stroke="none"/><text fill="#000000" font-family="Arial" font-size="13px" font-style="normal" font-weight="normal" stroke="none" text-decoration="none" x="352.5" y="453.5">*</text></g></g><g transform="translate(-270,-150) scale(1,1)"><g><path fill="none" stroke="none"/><text fill="#000000" font-family="Arial" font-size="13px" font-style="normal" font-weight="normal" stroke="none" text-decoration="none" x="498.5" y="294.5">*</text></g></g><g transform="translate(-270,-150) scale(1,1)"><rect fill="#C0C0C0" height="235" opacity="0.2" stroke="none" width="475.20361328125" x="583" y="167"/></g><g transform="translate(-270,-150) scale(1,1)"><rect fill="#ffffff" height="235" stroke="none" width="475.20361328125" x="576" y="160"/></g><g transform="translate(-270,-150) scale(1,1)"><path d="M 576 160 L 1051.20361328125 160 L 1051.20361328125 395 L 576 395 L 576 160 Z Z" fill="none" stroke="#000000" stroke-miterlimit="10"/></g><g transform="translate(-270,-150) scale(1,1)"><path d="M 576 185 L 1051.20361328125 185" fill="none" stroke="#000000" stroke-miterlimit="10"/></g><g transform="translate(-270,-150) scale(1,1)"><path d="M 576 268 L 1051.20361328125 268" fill="none" stroke="#000000" stroke-miterlimit="10"/></g><g transform="translate(-270,-150) scale(1,1)"><g><path fill="none" stroke="none"/><text fill="#000000" font-family="Arial" font-size="13px" font-style="normal" font-weight="bold" stroke="none" text-decoration="none" x="766.019775390625" y="179.5">WeddingSeating</text></g></g><g transform="translate(-270,-150) scale(1,1)"><g><path fill="none" stroke="none"/><text fill="#000000" font-family="Arial" font-size="13px" font-style="normal" font-weight="normal" stroke="none" text-decoration="none" x="581" y="202.5">-numTables: int</text></g></g><g transform="translate(-270,-150) scale(1,1)"><g><path fill="none" stroke="none"/><text fill="#000000" font-family="Arial" font-size="13px" font-style="normal" font-weight="normal" stroke="none" text-decoration="none" x="581" y="217.5">-amountPerTable: int</text></g></g><g transform="translate(-270,-150) scale(1,1)"><g><path fill="none" stroke="none"/><text fill="#000000" font-family="Arial" font-size="13px" font-style="normal" font-weight="normal" stroke="none" text-decoration="none" x="581" y="232.5">-unassignedGuests: Person[*]</text></g></g><g transform="translate(-270,-150) scale(1,1)"><g><path fill="none" stroke="none"/><text fill="#000000" font-family="Arial" font-size="13px" font-style="normal" font-weight="normal" stroke="none" text-decoration="none" x="581" y="247.5">-tables: Person[*][*]</text></g></g><g transform="translate(-270,-150) scale(1,1)"><g><path fill="none" stroke="none"/><text fill="#000000" font-family="Arial" font-size="13px" font-style="normal" font-weight="normal" stroke="none" text-decoration="none" x="581" y="262.5">-scorer: SeatingScorer</text></g></g><g transform="translate(-270,-150) scale(1,1)"><g><path fill="none" stroke="none"/><text fill="#000000" font-family="Arial" font-size="13px" font-style="normal" font-weight="normal" stroke="none" text-decoration="none" x="581" y="285.5">+WeddingSeating(amountPerTable: int, guests: Person[*], scorer: SeatingScorer)</text></g></g><g transform="translate(-270,-150) scale(1,1)"><g><path fill="none" stroke="none"/><text fill="#000000" font-family="Arial" font-size="13px" font-style="normal" font-weight="normal" stroke="none" text-decoration="none" x="581" y="300.5">+getNumTables(): int</text></g></g><g transform="translate(-270,-150) scale(1,1)"><g><path fill="none" stroke="none"/><text fill="#000000" font-family="Arial" font-size="13px" font-style="normal" font-weight="normal" stroke="none" text-decoration="none" x="581" y="315.5">+getTable(tableNum: int): Person[*]</text></g></g><g transform="translate(-270,-150) scale(1,1)"><g><path fill="none" stroke="none"/><text fill="#000000" font-family="Arial" font-size="13px" font-style="normal" font-weight="normal" stroke="none" text-decoration="none" x="581" y="330.5">+assignTable(guest: Person, tableNum: int)</text></g></g><g transform="translate(-270,-150) scale(1,1)"><g><path fill="none" stroke="none"/><text fill="#000000" font-family="Arial" font-size="13px" font-style="normal" font-weight="normal" stroke="none" text-decoration="none" x="581" y="345.5">+getUnassignedGuests(): Person[*]</text></g></g><g transform="translate(-270,-150) scale(1,1)"><g><path fill="none" stroke="none"/><text fill="#000000" font-family="Arial" font-size="13px" font-style="normal" font-weight="normal" stroke="none" text-decoration="none" x="581" y="360.5">+getOpenSeats(tableNum: int): int</text></g></g><g transform="translate(-270,-150) scale(1,1)"><g><path fill="none" stroke="none"/><text fill="#000000" font-family="Arial" font-size="13px" font-style="normal" font-weight="normal" stroke="none" text-decoration="none" x="581" y="375.5">+getAllTables(): Person[*][*]</text></g></g><g transform="translate(-270,-150) scale(1,1)"><g><path fill="none" stroke="none"/><text fill="#000000" font-family="Arial" font-size="13px" font-style="normal" font-weight="normal" stroke="none" text-decoration="none" x="581" y="390.5">+getCurrentScore(): int</text></g></g><g transform="translate(-270,-150) scale(1,1)"><path d="M 576 208 L 480 208" fill="none" stroke="#000000" stroke-miterlimit="10"/></g><g transform="translate(-270,-150) scale(1,1)"><path d="M 490.16267485762415 203.790482243984 L 480 208 L 490.16267485762415 212.209517756016" fill="none" stroke="#000000" stroke-miterlimit="10"/></g><g transform="translate(-270,-150) scale(1,1)"><g><path fill="none" stroke="none"/><text fill="#000000" font-family="Arial" font-size="13px" font-style="normal" font-weight="normal" stroke="none" text-decoration="none" x="551.58544921875" y="201.5">*</text></g></g><g transform="translate(-270,-150) scale(1,1)"><g><path fill="none" stroke="none"/><text fill="#000000" font-family="Arial" font-size="13px" font-style="normal" font-weight="normal" stroke="none" text-decoration="none" x="498.5" y="201.5">*</text></g></g><g transform="translate(-270,-150) scale(1,1)"><rect fill="#C0C0C0" height="115" opacity="0.2" stroke="none" width="264.9501953125" x="663" y="535"/></g><g transform="translate(-270,-150) scale(1,1)"><rect fill="#ffffff" height="115" stroke="none" width="264.9501953125" x="656" y="528"/></g><g transform="translate(-270,-150) scale(1,1)"><path d="M 656 528 L 920.9501953125 528 L 920.9501953125 643 L 656 643 L 656 528 Z Z" fill="none" stroke="#000000" stroke-miterlimit="10"/></g><g transform="translate(-270,-150) scale(1,1)"><path d="M 656 553 L 920.9501953125 553" fill="none" stroke="#000000" stroke-miterlimit="10"/></g><g transform="translate(-270,-150) scale(1,1)"><path d="M 656 591 L 920.9501953125 591" fill="none" stroke="#000000" stroke-miterlimit="10"/></g><g transform="translate(-270,-150) scale(1,1)"><g><path fill="none" stroke="none"/><text fill="#000000" font-family="Arial" font-size="13px" font-style="italic" font-weight="bold" stroke="none" text-decoration="none" x="748.005615234375" y="547.5">SeatingSolver</text></g></g><g transform="translate(-270,-150) scale(1,1)"><g><path fill="none" stroke="none"/><text fill="#000000" font-family="Arial" font-size="13px" font-style="normal" font-weight="normal" stroke="none" text-decoration="none" x="661" y="570.5">#lastSolveScore: int</text></g></g><g transform="translate(-270,-150) scale(1,1)"><g><path fill="none" stroke="none"/><text fill="#000000" font-family="Arial" font-size="13px" font-style="normal" font-weight="normal" stroke="none" text-decoration="none" x="661" y="585.5">#lastSolveRuntime: long</text></g></g><g transform="translate(-270,-150) scale(1,1)"><g><path fill="none" stroke="none"/><text fill="#000000" font-family="Arial" font-size="13px" font-style="italic" font-weight="normal" stroke="none" text-decoration="none" x="661" y="608.5">+solveSeating(seating: WeddingSeating)</text></g></g><g transform="translate(-270,-150) scale(1,1)"><g><path fill="none" stroke="none"/><text fill="#000000" font-family="Arial" font-size="13px" font-style="normal" font-weight="normal" stroke="none" text-decoration="none" x="661" y="623.5">+getLastSolveScore(): int</text></g></g><g transform="translate(-270,-150) scale(1,1)"><g><path fill="none" stroke="none"/><text fill="#000000" font-family="Arial" font-size="13px" font-style="normal" font-weight="normal" stroke="none" text-decoration="none" x="661" y="638.5">+getLastSolveRuntime(): long</text></g></g><g transform="translate(-270,-150) scale(1,1)"><rect fill="#C0C0C0" height="57" opacity="0.2" stroke="none" width="264.9501953125" x="367" y="695"/></g><g transform="translate(-270,-150) scale(1,1)"><rect fill="#ffffff" height="57" stroke="none" width="264.9501953125" x="360" y="688"/></g><g transform="translate(-270,-150) scale(1,1)"><path d="M 360 688 L 624.9501953125 688 L 624.9501953125 745 L 360 745 L 360 688 Z Z" fill="none" stroke="#000000" stroke-miterlimit="10"/></g><g transform="translate(-270,-150) scale(1,1)"><path d="M 360 713 L 624.9501953125 713" fill="none" stroke="#000000" stroke-miterlimit="10"/></g><g transform="translate(-270,-150) scale(1,1)"><path d="M 360 723 L 624.9501953125 723" fill="none" stroke="#000000" stroke-miterlimit="10"/></g><g transform="translate(-270,-150) scale(1,1)"><g><path fill="none" stroke="none"/><text fill="#000000" font-family="Arial" font-size="13px" font-style="normal" font-weight="bold" stroke="none" text-decoration="none" x="451.650146484375" y="707.5">GeneticSolver</text></g></g><g transform="translate(-270,-150) scale(1,1)"><g><path fill="none" stroke="none"/><text fill="#000000" font-family="Arial" font-size="13px" font-style="normal" font-weight="normal" stroke="none" text-decoration="none" x="365" y="740.5">+solveSeating(seating: WeddingSeating)</text></g></g><g transform="translate(-270,-150) scale(1,1)"><rect fill="#C0C0C0" height="57" opacity="0.2" stroke="none" width="243.99658203125" x="671" y="695"/></g><g transform="translate(-270,-150) scale(1,1)"><rect fill="#ffffff" height="57" stroke="none" width="243.99658203125" x="664" y="688"/></g><g transform="translate(-270,-150) scale(1,1)"><path d="M 664 688 L 907.99658203125 688 L 907.99658203125 745 L 664 745 L 664 688 Z Z" fill="none" stroke="#000000" stroke-miterlimit="10"/></g><g transform="translate(-270,-150) scale(1,1)"><path d="M 664 713 L 907.99658203125 713" fill="none" stroke="#000000" stroke-miterlimit="10"/></g><g transform="translate(-270,-150) scale(1,1)"><path d="M 664 723 L 907.99658203125 723" fill="none" stroke="#000000" stroke-miterlimit="10"/></g><g transform="translate(-270,-150) scale(1,1)"><g><path fill="none" stroke="none"/><text fill="#000000" font-family="Arial" font-size="13px" font-style="normal" font-weight="bold" stroke="none" text-decoration="none" x="730.3642578125" y="707.5">BacktrackingSolver</text></g></g><g transform="translate(-270,-150) scale(1,1)"><g><path fill="none" stroke="none"/><text fill="#000000" font-family="Arial" font-size="13px" font-style="normal" font-weight="normal" stroke="none" text-decoration="none" x="669" y="740.5">+solveSeating(seating: WeddingSeating)</text></g></g><g transform="translate(-270,-150) scale(1,1)"><rect fill="#C0C0C0" height="57" opacity="0.2" stroke="none" width="243.99658203125" x="951" y="695"/></g><g transform="translate(-270,-150) scale(1,1)"><rect fill="#ffffff" height="57" stroke="none" width="243.99658203125" x="944" y="688"/></g><g transform="translate(-270,-150) scale(1,1)"><path d="M 944 688 L 1187.99658203125 688 L 1187.99658203125 745 L 944 745 L 944 688 Z Z" fill="none" stroke="#000000" stroke-miterlimit="10"/></g><g transform="translate(-270,-150) scale(1,1)"><path d="M 944 713 L 1187.99658203125 713" fill="none" stroke="#000000" stroke-miterlimit="10"/></g><g transform="translate(-270,-150) scale(1,1)"><path d="M 944 723 L 1187.99658203125 723" fill="none" stroke="#000000" stroke-miterlimit="10"/></g><g transform="translate(-270,-150) scale(1,1)"><g><path fill="none" stroke="none"/><text fill="#000000" font-family="Arial" font-size="13px" font-style="normal" font-weight="bold" stroke="none" text-decoration="none" x="1026.2587890625" y="707.5">GreedySolver</text></g></g><g transform="translate(-270,-150) scale(1,1)"><g><path fill="none" stroke="none"/><text fill="#000000" font-family="Arial" font-size="13px" font-style="normal" font-weight="normal" stroke="none" text-decoration="none" x="949" y="740.5">+solveSeating(seating: WeddingSeating)</text></g></g><g transform="translate(-270,-150) scale(1,1)"><path d="M 558 687 L 655 644" fill="none" stroke="#000000" stroke-miterlimit="10"/></g><g transform="translate(-270,-150) scale(1,1)"><path d="M 639.8305002659981 659.9338092689763 L 655 644 L 633.0066392866535 644.540448455106" fill="#FFFFFF" stroke="none"/></g><g transform="translate(-270,-150) scale(1,1)"><path d="M 639.8305002659981 659.9338092689763 L 655 644 L 633.0066392866535 644.540448455106 L 639.8305002659981 659.9338092689763" fill="none" stroke="#000000" stroke-miterlimit="10"/></g><g transform="translate(-270,-150) scale(1,1)"><path d="M 786 687 L 787 644" fill="none" stroke="#000000" stroke-miterlimit="10"/></g><g transform="translate(-270,-150) scale(1,1)"><path d="M 794.9442050072491 664.5155942346986 L 787 644 L 778.1106854283349 664.124117035189" fill="#FFFFFF" stroke="none"/></g><g transform="translate(-270,-150) scale(1,1)"><path d="M 794.9442050072491 664.5155942346986 L 787 644 L 778.1106854283349 664.124117035189 L 794.9442050072491 664.5155942346986" fill="none" stroke="#000000" stroke-miterlimit="10"/></g><g transform="translate(-270,-150) scale(1,1)"><path d="M 1004 687 L 913 644" fill="none" stroke="#000000" stroke-miterlimit="10"/></g><g transform="translate(-270,-150) scale(1,1)"><path d="M 934.973884467327 645.0716349269065 L 913 644 L 927.7801223920846 660.2956430396287" fill="#FFFFFF" stroke="none"/></g><g transform="translate(-270,-150) scale(1,1)"><path d="M 934.973884467327 645.0716349269065 L 913 644 L 927.7801223920846 660.2956430396287 L 934.973884467327 645.0716349269065" fill="none" stroke="#000000" stroke-miterlimit="10"/></g><g transform="translate(-270,-150) scale(1,1)"><rect fill="#C0C0C0" height="57" opacity="0.2" stroke="none" width="266.39111328125" x="1191" y="423"/></g><g transform="translate(-270,-150) scale(1,1)"><rect fill="#ffffff" height="57" stroke="none" width="266.39111328125" x="1184" y="416"/></g><g transform="translate(-270,-150) scale(1,1)"><path d="M 1184 416 L 1450.39111328125 416 L 1450.39111328125 473 L 1184 473 L 1184 416 Z Z" fill="none" stroke="#000000" stroke-miterlimit="10"/></g><g transform="translate(-270,-150) scale(1,1)"><path d="M 1184 441 L 1450.39111328125 441" fill="none" stroke="#000000" stroke-miterlimit="10"/></g><g transform="translate(-270,-150) scale(1,1)"><path d="M 1184 451 L 1450.39111328125 451" fill="none" stroke="#000000" stroke-miterlimit="10"/></g><g transform="translate(-270,-150) scale(1,1)"><g><path fill="none" stroke="none"/><text fill="#000000" font-family="Arial" font-size="13px" font-style="italic" font-weight="bold" stroke="none" text-decoration="none" x="1276.005615234375" y="435.5">SeatingScorer</text></g></g><g transform="translate(-270,-150) scale(1,1)"><g><path fill="none" stroke="none"/><text fill="#000000" font-family="Arial" font-size="13px" font-style="italic" font-weight="normal" stroke="none" text-decoration="none" x="1189" y="468.5">+scoreSeating(seating: WeddingSeating): int</text></g></g><g transform="translate(-270,-150) scale(1,1)"><path d="M 784 528 L 784 395" fill="none" stroke="#000000" stroke-dasharray="3" stroke-miterlimit="10"/></g><g transform="translate(-270,-150) scale(1,1)"><path d="M 788.209517756016 405.16267485762415 L 784 395 L 779.790482243984 405.16267485762415" fill="none" stroke="#000000" stroke-miterlimit="10"/></g><g transform="translate(-270,-150) scale(1,1)"><rect fill="#C0C0C0" height="57" opacity="0.2" stroke="none" width="266.39111328125" x="1047" y="527"/></g><g transform="translate(-270,-150) scale(1,1)"><rect fill="#ffffff" height="57" stroke="none" width="266.39111328125" x="1040" y="520"/></g><g transform="translate(-270,-150) scale(1,1)"><path d="M 1040 520 L 1306.39111328125 520 L 1306.39111328125 577 L 1040 577 L 1040 520 Z Z" fill="none" stroke="#000000" stroke-miterlimit="10"/></g><g transform="translate(-270,-150) scale(1,1)"><path d="M 1040 545 L 1306.39111328125 545" fill="none" stroke="#000000" stroke-miterlimit="10"/></g><g transform="translate(-270,-150) scale(1,1)"><path d="M 1040 555 L 1306.39111328125 555" fill="none" stroke="#000000" stroke-miterlimit="10"/></g><g transform="translate(-270,-150) scale(1,1)"><g><path fill="none" stroke="none"/><text fill="#000000" font-family="Arial" font-size="13px" font-style="normal" font-weight="bold" stroke="none" text-decoration="none" x="1116.837890625" y="539.5">SimpleCountScorer</text></g></g><g transform="translate(-270,-150) scale(1,1)"><g><path fill="none" stroke="none"/><text fill="#000000" font-family="Arial" font-size="13px" font-style="normal" font-weight="normal" stroke="none" text-decoration="none" x="1045" y="572.5">+scoreSeating(seating: WeddingSeating): int</text></g></g><g transform="translate(-270,-150) scale(1,1)"><rect fill="#C0C0C0" height="57" opacity="0.2" stroke="none" width="266.39111328125" x="1335" y="527"/></g><g transform="translate(-270,-150) scale(1,1)"><rect fill="#ffffff" height="57" stroke="none" width="266.39111328125" x="1328" y="520"/></g><g transform="translate(-270,-150) scale(1,1)"><path d="M 1328 520 L 1594.39111328125 520 L 1594.39111328125 577 L 1328 577 L 1328 520 Z Z" fill="none" stroke="#000000" stroke-miterlimit="10"/></g><g transform="translate(-270,-150) scale(1,1)"><path d="M 1328 545 L 1594.39111328125 545" fill="none" stroke="#000000" stroke-miterlimit="10"/></g><g transform="translate(-270,-150) scale(1,1)"><path d="M 1328 555 L 1594.39111328125 555" fill="none" stroke="#000000" stroke-miterlimit="10"/></g><g transform="translate(-270,-150) scale(1,1)"><g><path fill="none" stroke="none"/><text fill="#000000" font-family="Arial" font-size="13px" font-style="normal" font-weight="bold" stroke="none" text-decoration="none" x="1413.143798828125" y="539.5">RuinTableScorer</text></g></g><g transform="translate(-270,-150) scale(1,1)"><g><path fill="none" stroke="none"/><text fill="#000000" font-family="Arial" font-size="13px" font-style="normal" font-weight="normal" stroke="none" text-decoration="none" x="1333" y="572.5">+scoreSeating(seating: WeddingSeating): int</text></g></g><g transform="translate(-270,-150) scale(1,1)"><path d="M 1213 519 L 1275 474" fill="none" stroke="#000000" stroke-miterlimit="10"/></g><g transform="translate(-270,-150) scale(1,1)"><path d="M 1263.4959926987447 492.7525415880798 L 1275 474 L 1253.6053891050487 479.12548774787666" fill="#FFFFFF" stroke="none"/></g><g transform="translate(-270,-150) scale(1,1)"><path d="M 1263.4959926987447 492.7525415880798 L 1275 474 L 1253.6053891050487 479.12548774787666 L 1263.4959926987447 492.7525415880798" fill="none" stroke="#000000" stroke-miterlimit="10"/></g><g transform="translate(-270,-150) scale(1,1)"><path d="M 1421 519 L 1359 474" fill="none" stroke="#000000" stroke-miterlimit="10"/></g><g transform="translate(-270,-150) scale(1,1)"><path d="M 1380.3946108949513 479.12548774787666 L 1359 474 L 1370.5040073012553 492.7525415880798" fill="#FFFFFF" stroke="none"/></g><g transform="translate(-270,-150) scale(1,1)"><path d="M 1380.3946108949513 479.12548774787666 L 1359 474 L 1370.5040073012553 492.7525415880798 L 1380.3946108949513 479.12548774787666" fill="none" stroke="#000000" stroke-miterlimit="10"/></g><g transform="translate(-270,-150) scale(1,1)"><path d="M 1051 296 L 1312 296 L 1312 416" fill="none" stroke="#000000" stroke-miterlimit="10"/></g><g transform="translate(-270,-150) scale(1,1)"><path d="M 1307.7904822439841 405.83732514237585 L 1312 416 L 1316.2095177560159 405.83732514237585" fill="none" stroke="#000000" stroke-miterlimit="10"/></g><g transform="translate(-270,-150) scale(1,1)"><g><path fill="none" stroke="none"/><text fill="#000000" font-family="Arial" font-size="13px" font-style="normal" font-weight="normal" stroke="none" text-decoration="none" x="1069.58544921875" y="314.5">*</text></g></g><g transform="translate(-270,-150) scale(1,1)"><g><path fill="none" stroke="none"/><text fill="#000000" font-family="Arial" font-size="13px" font-style="normal" font-weight="normal" stroke="none" text-decoration="none" x="1295.5" y="400.5">1</text></g></g></g></svg>